<svg width="20" height="16" viewBox="0 0 20 16" fill="none" xmlns="http://www.w3.org/2000/svg">
<path fill-rule="evenodd" clip-rule="evenodd" d="M9.90209 0C10.1142 3.37585e-08 10.3079 0.123009 10.4012 0.31708C10.9804 1.52088 11.8527 3.33729 12.5872 4.87419C12.9544 5.64253 13.2875 6.34162 13.5323 6.85953C13.5894 6.98012 13.6417 7.09111 13.6886 7.19101C13.692 7.18851 13.6954 7.18599 13.6988 7.18346C14.0375 6.93057 14.5064 6.55926 15.0315 6.13376C16.0797 5.28435 17.3303 4.23601 18.1624 3.52952C18.3563 3.36486 18.6348 3.35402 18.8405 3.5031C19.0462 3.65219 19.1275 3.92378 19.0384 4.16444L15.8421 12.8016C15.7605 13.0222 15.5533 13.1682 15.3219 13.1682H4.48223C4.25088 13.1682 4.04372 13.0222 3.9621 12.8016L0.765771 4.16444C0.676711 3.92378 0.757988 3.65219 0.963685 3.5031C1.16938 3.35402 1.44785 3.36486 1.64178 3.52952C2.47386 4.23601 3.72453 5.28435 4.77268 6.13376C5.29774 6.55926 5.76673 6.93057 6.10542 7.18346C6.10881 7.18599 6.11218 7.18851 6.11554 7.19101C6.16249 7.09111 6.21483 6.98012 6.27184 6.85953C6.51672 6.34162 6.84979 5.64253 7.217 4.87419C7.95152 3.33729 8.82379 1.52088 9.40295 0.31708C9.49632 0.123009 9.68996 0 9.90209 0ZM15.5999 13.8762V15.0089H4.20429V13.8762H15.5999Z" fill="#6247AA"/>
</svg>
