<svg width="125" height="35" viewBox="0 0 125 35" fill="none" xmlns="http://www.w3.org/2000/svg">
<path fill-rule="evenodd" clip-rule="evenodd" d="M73.1705 0C73.3045 2.10026e-08 73.4267 0.0765293 73.4856 0.197269C73.8513 0.946203 74.402 2.07627 74.8657 3.03244C75.0975 3.51046 75.3078 3.94539 75.4624 4.26761C75.4984 4.34263 75.5314 4.41168 75.561 4.47384C75.5632 4.47228 75.5653 4.47071 75.5674 4.46914C75.7812 4.31181 76.0773 4.0808 76.4088 3.81607C77.0705 3.28762 77.8601 2.6354 78.3854 2.19586C78.5078 2.09343 78.6836 2.08668 78.8135 2.17943C78.9433 2.27218 78.9946 2.44115 78.9384 2.59087L76.9205 7.96445C76.869 8.10167 76.7382 8.1925 76.5922 8.1925H69.7489C69.6028 8.1925 69.4721 8.10167 69.4205 7.96445L67.4027 2.59087C67.3464 2.44115 67.3977 2.27218 67.5276 2.17943C67.6575 2.08668 67.8333 2.09343 67.9557 2.19586C68.481 2.6354 69.2706 3.28762 69.9323 3.81607C70.2637 4.0808 70.5598 4.31181 70.7736 4.46914C70.7758 4.47071 70.7779 4.47228 70.78 4.47384C70.8097 4.41168 70.8427 4.34263 70.8787 4.26761C71.0333 3.94539 71.2436 3.51046 71.4754 3.03244C71.9391 2.07627 72.4898 0.946203 72.8554 0.197269C72.9144 0.0765292 73.0366 0 73.1705 0ZM76.7676 8.63295V9.33768H69.5734V8.63295H76.7676Z" fill="#6247AA"/>
<path d="M14.0867 34.7629L5.91849 24.2649V34.7629H0V10.9899H5.91849V21.4203L14.0175 10.9899H20.9743L11.5601 22.6394L21.3204 34.7629H14.0867Z" fill="#6247AA"/>
<path d="M44.969 10.9899L36.5585 26.9063V34.7629H30.64V26.9063L22.2295 10.9899H28.944L33.6511 20.9462L38.3236 10.9899H44.969Z" fill="#6247AA"/>
<path d="M59.7444 34.7629L54.6912 25.7888H53.2721V34.7629H47.3536V10.9899H57.287C59.2021 10.9899 60.8288 11.3173 62.1671 11.972C63.5285 12.6267 64.5438 13.5298 65.2129 14.6812C65.8821 15.81 66.2166 17.0743 66.2166 18.474C66.2166 20.0544 65.7552 21.4654 64.8322 22.7071C63.9323 23.9488 62.594 24.8293 60.8173 25.3486L66.4243 34.7629H59.7444ZM53.2721 21.6912H56.9409C58.0253 21.6912 58.8329 21.4316 59.3636 20.9123C59.9174 20.393 60.1943 19.6593 60.1943 18.7111C60.1943 17.808 59.9174 17.0969 59.3636 16.5776C58.8329 16.0584 58.0253 15.7987 56.9409 15.7987H53.2721V21.6912Z" fill="#6247AA"/>
<path d="M75.8504 10.9899V34.7629H69.9319V10.9899H75.8504Z" fill="#6247AA"/>
<path d="M91.6304 35C89.346 35 87.2463 34.4807 85.3311 33.4422C83.4391 32.4037 81.9277 30.9588 80.7971 29.1075C79.6895 27.2337 79.1358 25.1341 79.1358 22.8087C79.1358 20.4833 79.6895 18.395 80.7971 16.5438C81.9277 14.6925 83.4391 13.2476 85.3311 12.2091C87.2463 11.1706 89.346 10.6513 91.6304 10.6513C93.9147 10.6513 96.0029 11.1706 97.895 12.2091C99.8101 13.2476 101.31 14.6925 102.394 16.5438C103.502 18.395 104.056 20.4833 104.056 22.8087C104.056 25.1341 103.502 27.2337 102.394 29.1075C101.287 30.9588 99.787 32.4037 97.895 33.4422C96.0029 34.4807 93.9147 35 91.6304 35ZM91.6304 29.7171C93.5686 29.7171 95.1145 29.085 96.2682 27.8207C97.445 26.5564 98.0334 24.8858 98.0334 22.8087C98.0334 20.7091 97.445 19.0385 96.2682 17.7967C95.1145 16.5325 93.5686 15.9003 91.6304 15.9003C89.6691 15.9003 88.1 16.5212 86.9232 17.7629C85.7695 19.0046 85.1927 20.6865 85.1927 22.8087C85.1927 24.9083 85.7695 26.5903 86.9232 27.8546C88.1 29.0963 89.6691 29.7171 91.6304 29.7171Z" fill="#6247AA"/>
<path d="M116.14 35C114.363 35 112.771 34.7178 111.363 34.1534C109.956 33.589 108.825 32.7536 107.971 31.6474C107.141 30.5412 106.702 29.2091 106.656 27.6514H112.955C113.048 28.5318 113.359 29.2091 113.89 29.6832C114.421 30.1348 115.113 30.3605 115.967 30.3605C116.843 30.3605 117.536 30.1686 118.043 29.7848C118.551 29.3785 118.805 28.8253 118.805 28.1255C118.805 27.5385 118.597 27.0531 118.182 26.6693C117.789 26.2855 117.293 25.9694 116.693 25.7211C116.117 25.4727 115.286 25.1905 114.201 24.8745C112.632 24.4004 111.352 23.9262 110.36 23.4521C109.367 22.978 108.514 22.2782 107.798 21.3525C107.083 20.4269 106.725 19.2191 106.725 17.729C106.725 15.5165 107.544 13.7894 109.183 12.5477C110.821 11.2834 112.955 10.6513 115.586 10.6513C118.262 10.6513 120.42 11.2834 122.058 12.5477C123.696 13.7894 124.573 15.5278 124.689 17.7629H118.285C118.239 16.9953 117.951 16.397 117.42 15.9681C116.889 15.5165 116.209 15.2908 115.378 15.2908C114.663 15.2908 114.086 15.4827 113.648 15.8665C113.209 16.2277 112.99 16.7582 112.99 17.4581C112.99 18.2257 113.359 18.824 114.098 19.2529C114.836 19.6819 115.99 20.1447 117.559 20.6414C119.128 21.1606 120.397 21.6573 121.366 22.1314C122.358 22.6055 123.212 23.2941 123.927 24.1972C124.642 25.1002 125 26.2629 125 27.6852C125 29.0398 124.642 30.2702 123.927 31.3765C123.235 32.4827 122.22 33.3632 120.881 34.0179C119.543 34.6726 117.962 35 116.14 35Z" fill="#6247AA"/>
</svg>
